<?xml version="1.0" encoding="UTF-8"?>
<svg xmlns="http://www.w3.org/2000/svg" viewBox="0 0 120 120" width="120" height="120">
  <defs>
    <radialGradient id="bgGlow" cx="50%" cy="40%" r="55%">
      <stop offset="0%" stop-color="#FFFFFF" stop-opacity="0.95" />
      <stop offset="100%" stop-color="#F1F5F9" stop-opacity="0.88" />
    </radialGradient>
    <filter id="dropShadow" x="-15%" y="-15%" width="130%" height="130%">
      <feDropShadow dx="0" dy="4" stdDeviation="4" flood-color="#0F172A" flood-opacity="0.25" />
    </filter>
  </defs>
  <circle cx="60" cy="60" r="54" fill="url(#bgGlow)" stroke="#FFFFFF" stroke-width="4" filter="url(#dropShadow)" />
  <g filter="url(#dropShadow)">
    
        <!-- Whole Pear Silhouette with Stem and Leaf -->
        <path d="M60 24 Q63 14 68 14" fill="none" stroke="#78350F" stroke-width="4" stroke-linecap="round" />
        <path d="M61 20 Q76 14 80 24 Q69 30 61 20 Z" fill="#16A34A" />
        <path d="M60 24 C49 24 46 38 39 54 C29 74 39 94 60 94 C81 94 91 74 81 54 C74 38 71 24 60 24 Z" fill="#EAB308" stroke="#15803D" stroke-width="2" />
        <path d="M46 54 C42 66 45 78 52 83" fill="none" stroke="#FEF9C3" stroke-width="5" stroke-linecap="round" opacity="0.75" />
        <circle cx="49" cy="42" r="3" fill="#FEF9C3" opacity="0.75" />
      
  </g>
</svg>